<?xml version="1.0" encoding="UTF-8"?>
<svg width="1024" height="1024" version="1.1" viewBox="0 0 270.93 270.93" xmlns="http://www.w3.org/2000/svg"><rect x=".43396" y="71.797" width="270.07" height="127.34" fill="#404040" stroke-width="1.0748"/><rect x="2.8218" y="74.858" width="265.29" height="121.22" fill="#102538" stroke-width=".512"/><text x="63.040092" y="21.55415" font-family="sans-serif" font-size="10.583px" stroke-width=".26458" text-align="center" text-anchor="middle" style="line-height:1.25" xml:space="preserve"><tspan x="63.040092" y="21.55415" stroke-width=".26458"/></text><g fill="#fedb8b" stroke-width=".25516" aria-label="KL"><path d="m130.02 176.29q0 6.1238-3.8104 9.9341-3.6743 3.6743-9.798 3.6743h-16.33q-5.1712 0-9.662-4.4908l-40.417-40.417q-4.3547-4.3547-4.3547-9.662 0-5.1712 4.3547-9.5259l40.417-40.281q4.4908-4.4908 9.662-4.4908h16.33q6.1238 0 9.798 3.8104 3.8104 3.6743 3.8104 9.798t-3.8104 9.9341q-3.6743 3.6743-9.798 3.6743h-6.9403q-3.4021 0-5.5794 2.1773l-25.039 24.903 25.039 25.176q2.1773 2.1773 5.5794 2.1773h6.9403q6.1238 0 9.798 3.8104 3.8104 3.6743 3.8104 9.798zm-97.98 0q0 6.1238-3.8104 9.9341-3.6743 3.6743-9.798 3.6743t-9.9341-3.6743q-3.6743-3.8104-3.6743-9.9341v-81.65q0-6.1238 3.6743-9.798 3.8104-3.8104 9.9341-3.8104t9.798 3.8104q3.8104 3.6743 3.8104 9.798z"/><path d="m168.13 135.47q0 6.1238-3.8104 9.9341-3.6743 3.6743-9.798 3.6743t-9.9341-3.6743q-3.6743-3.8104-3.6743-9.9341v-40.825q0-6.1238 3.6743-9.798 3.8104-3.8104 9.9341-3.8104t9.798 3.8104q3.8104 3.6743 3.8104 9.798zm97.98 40.825q0 6.1238-3.8104 9.9341-3.6743 3.6743-9.798 3.6743h-97.98q-6.1238 0-9.9341-3.6743-3.6743-3.8104-3.6743-9.9341t3.6743-9.798q3.8104-3.8104 9.9341-3.8104h97.98q6.1238 0 9.798 3.8104 3.8104 3.6743 3.8104 9.798z"/></g></svg>
